<svg width="96" height="48" viewBox="0 0 96 48" fill="none" xmlns="http://www.w3.org/2000/svg">
<path d="M19.8786 20.4604C19.1999 21.2362 18.618 22.0119 18.3271 22.9816C18.1332 23.5634 17.8423 24.2422 17.5514 24.824C17.2605 25.4058 16.9696 25.9876 16.6787 26.5694C16.1938 27.6361 15.9029 28.7997 15.612 29.9633C15.4181 31.1269 15.1272 32.2905 14.9332 33.4541C14.7393 34.4238 14.6423 35.3935 14.5453 36.3632C14.4484 37.3329 14.3514 38.3025 14.2544 39.2722C14.2544 39.5631 14.1575 39.854 14.0605 40.2419C13.9635 40.5328 13.8666 40.8237 13.8666 41.2116C13.8666 41.3086 13.7696 41.4055 13.7696 41.5025C13.6726 41.5995 13.6726 41.5995 13.5757 41.5995C13.2848 41.6964 13.0908 41.6964 12.7999 41.6964C12.509 41.6964 12.3151 41.7934 12.0242 41.7934C11.7332 41.7934 11.5393 41.7934 11.3454 41.6964C11.1514 41.5995 10.9575 41.4055 10.7636 41.2116C10.4727 40.9207 10.3757 40.7267 10.2787 40.4358C10.1817 40.1449 10.1817 39.854 10.1817 39.5631C10.1817 39.0783 10.0848 38.4965 9.98781 38.0116C9.89084 37.5268 9.79387 37.042 9.79387 36.4602C9.6969 35.5874 9.59993 34.6178 9.50296 33.745C9.40599 32.8723 9.30902 31.9996 9.21205 31.0299C9.21205 30.6421 9.11508 30.3512 9.11508 29.9633C9.01812 29.5754 9.01812 29.1875 8.92115 28.7997C8.72721 28.9936 8.53327 29.1875 8.4363 29.3815C8.33933 29.5754 8.24236 29.7694 8.1454 29.9633C8.04843 30.1572 8.04843 30.3512 8.04843 30.5451C8.04843 30.739 7.95146 30.933 7.95146 31.1269C7.66055 31.9996 7.46661 32.8723 7.17571 33.745C6.98177 34.6178 6.69086 35.4905 6.49692 36.3632C6.30298 37.1389 6.10905 37.9147 5.91511 38.6904C5.72117 39.4662 5.52723 40.2419 5.33329 41.1146L5.23633 41.5995C5.13936 42.0843 4.84845 42.3752 4.3636 42.2782C4.16967 42.2782 4.0727 42.2782 3.87876 42.2782C3.68482 42.2782 3.49088 42.2782 3.39391 42.2782C3.00604 42.2782 2.71513 42.0843 2.42422 41.6964C2.13332 41.4055 2.03635 41.0177 2.03635 40.6298C2.03635 39.951 2.03635 39.2722 2.03635 38.6904C2.03635 38.0116 2.03635 37.3329 2.03635 36.7511C2.03635 35.6844 2.03635 34.5208 1.93938 33.4541C2.03635 32.0966 1.93938 31.0299 1.93938 29.8663C1.93938 28.3148 1.74544 26.7633 1.64847 25.3088C1.45453 23.8543 1.06666 22.3028 0.484845 20.8483C0.387876 20.6544 0.290907 20.5574 0.290907 20.3635C0.193938 20.1695 0.193938 20.0726 0.193938 19.8786C0 19.5877 0 19.3938 0 19.1998C0.096969 19.1029 0.290907 19.0059 0.581814 18.9089C1.06666 18.9089 1.5515 18.9089 1.84241 19.1029C2.23029 19.2968 2.52119 19.5877 2.71513 20.1695C3.10301 21.1392 3.49088 22.1089 3.78179 23.1755C4.0727 24.1452 4.3636 25.2119 4.55754 26.2785C4.75148 27.4421 4.84845 28.6057 4.94542 29.6724C5.04239 30.836 5.04239 31.9996 5.04239 33.1632C5.04239 33.2602 5.04239 33.2602 5.04239 33.3572C5.04239 33.4541 5.04239 33.5511 5.04239 33.6481C5.23633 33.6481 5.43026 33.5511 5.43026 33.3572C5.72117 33.1632 5.72117 32.9693 5.81814 32.8723C6.20602 31.6118 6.69086 30.3512 7.17571 29.1875C7.66055 27.927 8.24236 26.7633 8.82418 25.5997C8.92115 25.4058 9.01812 25.2119 9.01812 25.0179C9.01812 24.824 9.01812 24.6301 9.01812 24.4361C9.01812 23.9513 9.11508 23.6604 9.21205 23.4664C9.30902 23.2725 9.59993 23.1755 10.0848 23.1755C10.1817 23.1755 10.3757 23.1755 10.4727 23.1755C10.5696 23.1755 10.6666 23.1755 10.7636 23.0786C10.8605 23.0786 10.9575 22.9816 11.0545 22.9816C11.1514 22.8846 11.2484 22.8846 11.4423 22.7877L12.7029 34.6178H12.8969C12.9938 34.4238 12.9938 34.2299 13.0908 34.1329C13.2848 32.8723 13.6726 31.6117 14.0605 30.3512C14.4484 29.0906 14.9332 27.927 15.4181 26.6664C15.8059 25.8906 16.0969 25.1149 16.4847 24.2422C16.8726 23.4664 17.1635 22.5937 17.4544 21.818C17.7453 21.0422 18.1332 20.4604 18.715 19.9756C19.2968 19.4907 20.0726 19.3938 20.9453 19.5877L19.8786 20.4604Z" fill="white"/>
<path d="M23.5634 36.5571C23.6604 36.654 23.7574 36.654 23.8543 36.654C23.9513 36.654 24.1453 36.654 24.2422 36.5571C24.3392 36.4601 24.5331 36.3631 24.6301 36.2662C24.824 36.1692 24.921 36.0722 25.1149 35.8783C25.3089 35.7813 25.5028 35.5874 25.7937 35.4904C25.7937 35.6843 25.6968 35.9753 25.5998 36.2662C25.5028 36.5571 25.3089 36.751 24.921 37.0419C24.6301 37.3328 24.3392 37.5267 24.1453 37.6237C23.9513 37.7207 23.6604 37.7207 23.2725 37.6237H23.1756C23.0786 37.8176 23.0786 38.1086 22.9816 38.3025C22.8847 38.4964 22.8847 38.6904 22.6907 38.9813C22.4968 39.3691 22.3028 39.757 22.0119 40.1449C21.721 40.5328 21.3332 40.6297 20.7513 40.7267C19.8786 40.7267 19.0059 40.4358 18.1332 39.854C17.8423 39.66 17.6483 39.4661 17.5514 39.1752C17.4544 38.8843 17.3574 38.5934 17.3574 38.3025V35.3934C17.3574 35.2965 17.3574 35.1995 17.3574 35.1025C17.3574 35.0056 17.3574 34.9086 17.3574 34.8116L17.5514 32.8723C17.7453 31.9026 17.9392 31.0299 18.2301 30.1572C18.521 29.2845 18.812 28.4117 19.1998 27.539L19.4907 27.0542C19.7816 26.4724 20.2665 26.2784 20.9453 26.4724C21.3332 26.5694 21.721 26.6663 22.1089 26.7633C22.4968 26.8603 22.8847 26.9572 23.2725 27.0542V27.1512V27.2481C22.9816 27.4421 22.7877 27.539 22.4968 27.733C22.2059 27.8299 22.0119 28.0239 21.818 28.2178C21.6241 28.4117 21.4301 28.6057 21.3332 28.8966C21.2362 29.1875 21.1392 29.4784 21.2362 29.7693C21.721 29.8663 22.2059 29.9632 22.6907 30.0602C23.1756 30.1572 23.6604 30.2541 24.1453 30.2541L24.7271 32.7753C24.7271 32.9692 24.7271 33.1632 24.6301 33.3571C24.5331 33.5511 24.5331 33.648 24.4362 33.842C24.3392 34.0359 24.2422 34.2298 24.1453 34.4238C24.0483 34.6177 23.9513 34.9086 23.8543 35.2965L23.5634 36.5571ZM21.1392 38.9813C21.3332 38.4964 21.5271 38.0116 21.721 37.5267C21.915 37.0419 22.0119 36.5571 22.2059 36.0722L22.1089 35.6843C22.0119 35.2965 21.915 34.8116 21.915 34.1329C21.915 33.4541 21.915 32.7753 22.0119 32.0965C21.818 31.8056 21.6241 31.5147 21.4301 31.2238C21.3332 30.9329 21.2362 30.545 21.2362 30.1572C21.1392 30.1572 21.0422 30.1572 20.9453 30.1572C20.9453 30.2541 20.8483 30.2541 20.8483 30.3511C20.8483 30.4481 20.7513 30.4481 20.7513 30.545C20.3635 31.6117 20.0726 32.7753 19.8786 33.9389C19.6847 35.1025 19.5877 36.2662 19.5877 37.4298C19.5877 37.7207 19.5877 38.0116 19.5877 38.3025C19.5877 38.5934 19.6847 38.8843 19.7816 39.1752C19.7816 39.2722 19.8786 39.3691 19.9756 39.4661C20.0726 39.5631 20.1695 39.66 20.2665 39.757C20.3635 39.757 20.4604 39.757 20.5574 39.757C20.6544 39.66 20.7513 39.66 20.8483 39.5631C20.9453 39.3691 21.1392 39.1752 21.1392 38.9813Z" fill="white"/>
<path d="M37.4299 35.7812C37.5269 35.8782 37.7208 35.9752 38.0117 35.9752C38.2057 35.9752 38.5935 35.7812 38.9814 35.4903C38.8845 35.7812 38.7875 35.9752 38.6905 36.1691C38.5935 36.363 38.3996 36.557 38.3026 36.6539C38.2057 36.7509 38.0117 36.8479 37.9148 36.9448C37.8178 37.0418 37.7208 37.0418 37.6239 37.0418C37.5269 37.0418 37.4299 36.9449 37.3329 36.8479C37.236 36.7509 37.042 36.6539 36.9451 36.557L36.3633 36.0721C36.2663 36.2661 36.2663 36.6539 36.1693 37.0418C36.1693 37.4297 36.0723 37.9145 35.8784 38.4963C35.7814 38.8842 35.5875 39.2721 35.3936 39.466C35.1996 39.7569 34.9087 39.8539 34.5208 39.9509C34.2299 40.0478 33.8421 40.0478 33.4542 39.9509C33.0663 39.8539 32.7754 39.66 32.3875 39.3691C32.0966 39.1751 31.9997 38.8842 31.9027 38.6903C31.8057 38.3994 31.7087 38.2054 31.7087 37.9145L31.6118 35.6843C31.6118 35.3934 31.5148 35.1994 31.5148 34.9085C31.5148 34.6176 31.4178 34.4237 31.4178 34.1328H31.3209H31.2239C31.1269 34.5207 30.933 34.9085 30.836 35.2964C30.7391 35.6843 30.5451 36.0721 30.4481 36.46C30.2542 36.9448 30.1572 37.5267 29.9633 38.0115C29.7694 38.4963 29.6724 39.0781 29.4785 39.563C29.2845 40.0478 29.0906 40.3387 28.7027 40.4357C28.4118 40.5327 28.0239 40.5327 27.4421 40.2418C27.0542 40.0478 26.6664 39.8539 26.3755 39.563C26.0845 39.2721 25.7936 38.8842 25.5997 38.5933C25.5027 38.3994 25.4058 38.2054 25.4058 38.0115C25.4058 37.8176 25.4058 37.6236 25.4058 37.4297C25.4058 37.1388 25.4058 36.7509 25.5027 36.2661C25.5027 35.7812 25.5027 35.3934 25.5997 34.9085C25.5997 34.4237 25.5997 33.9388 25.6967 33.551C25.6967 33.0661 25.6967 32.6783 25.7936 32.3874V32.2904C25.7936 32.0964 25.8906 31.8055 25.8906 31.5146C25.9876 31.2237 25.9876 30.8359 25.9876 30.448C25.9876 30.0601 26.0845 29.7692 26.0845 29.3813C26.1815 29.0904 26.1815 28.7995 26.1815 28.6056C26.2785 28.2177 26.3755 27.9268 26.4724 27.7329C26.5694 27.539 26.6664 27.345 26.8603 27.345C27.0542 27.248 27.2482 27.248 27.4421 27.248C27.733 27.248 28.0239 27.345 28.4118 27.442C28.6057 27.442 28.8966 27.539 29.0906 27.6359C29.2845 27.7329 29.5754 27.8299 29.7694 27.9268C29.6724 28.1208 29.6724 28.2177 29.5754 28.3147C29.5754 28.4117 29.4785 28.5086 29.3815 28.6056C28.7027 29.0904 28.5088 29.7692 28.7997 30.6419V30.7389C28.7997 30.8359 28.7997 30.8359 28.7997 30.8359C28.6057 31.1268 28.5088 31.3207 28.4118 31.6116C28.3148 31.9025 28.3148 32.1934 28.2179 32.4843C28.2179 32.7752 28.1209 33.0661 28.1209 33.357C28.1209 33.6479 28.1209 33.9388 28.0239 34.2297C27.927 34.9085 27.83 35.5873 27.733 36.2661C27.636 36.9449 27.5391 37.6236 27.4421 38.3024C27.4421 38.4963 27.3451 38.5933 27.4421 38.7872C27.4421 38.8842 27.5391 39.0781 27.83 39.2721L28.5088 38.0115C28.9936 36.8479 29.5754 35.5873 30.1572 34.4237C30.7391 33.2601 31.2239 31.9995 31.8057 30.8359C32.0966 30.2541 32.5815 30.2541 33.3572 30.7389C33.2603 31.9995 33.1633 33.2601 33.1633 34.5206C33.1633 35.7812 33.2603 37.0418 33.3572 38.3024H33.4542H33.5512L33.7451 37.8176C33.8421 37.2358 33.939 36.8479 34.036 36.557C34.133 36.2661 34.133 35.9752 34.2299 35.7812C34.3269 35.5873 34.4239 35.2964 34.5208 35.0055C34.6178 34.7146 34.8118 34.3267 35.1027 33.8419C35.1996 33.551 35.2966 33.1631 35.2966 32.8722C35.2966 32.4843 35.2966 32.1934 35.3936 31.8055L35.5875 30.7389C35.6845 30.448 35.8784 30.2541 36.2663 30.2541C36.4602 30.2541 36.6542 30.2541 36.8481 30.2541C37.042 30.2541 37.236 30.351 37.3329 30.545C37.6239 30.9328 37.7208 31.4177 37.5269 31.9025C37.236 32.7752 37.042 33.551 36.8481 34.4237C36.8481 34.5206 36.8481 34.6176 36.8481 34.7146C36.8481 34.8116 36.8481 35.0055 36.9451 35.1994C36.9451 35.3934 37.042 35.4903 37.139 35.5873C37.3329 35.6843 37.3329 35.7812 37.4299 35.7812Z" fill="white"/>
<path d="M48.5813 19.3942C49.454 19.2003 50.0358 19.5881 50.3267 20.5578C50.4237 20.9457 50.5206 21.3335 50.4237 21.8184C50.4237 22.2063 50.3267 22.5941 50.2297 23.079C50.0358 23.6608 49.9388 24.2426 49.7449 24.8244C49.551 25.4062 49.357 25.988 49.0661 26.4729C48.8722 26.7638 48.6782 27.1516 48.5813 27.5395C48.4843 27.9274 48.2904 28.2183 48.0964 28.6062L46.5449 31.9031C46.5449 32 46.4479 32.097 46.4479 32.194C46.4479 32.2909 46.351 32.4849 46.351 32.5818L47.0298 32.7758C47.1267 32.7758 47.3207 32.8727 47.4176 32.8727C47.5146 32.8727 47.7085 32.9697 47.8055 32.9697C48.0964 33.0667 48.3873 33.2606 48.6782 33.4546C48.9691 33.6485 49.1631 33.9394 49.357 34.2303C49.551 34.5212 49.6479 34.8121 49.7449 35.2C49.8419 35.4909 49.8419 35.8788 49.8419 36.1697C49.8419 36.2666 49.8419 36.3636 49.7449 36.4606L47.4176 39.1757C47.3207 39.2726 47.2237 39.3696 47.1267 39.4666C47.0298 39.5635 46.9328 39.6605 46.8358 39.8544C46.7389 40.0484 46.6419 40.2423 46.5449 40.4363C46.4479 40.6302 46.351 40.8241 46.157 41.0181C45.8661 41.5029 45.4783 41.6968 45.0904 41.7938C44.7025 41.8908 44.2177 41.6968 43.8298 41.4059C43.5389 41.212 43.4419 40.8241 43.6358 40.4363C44.0237 39.7575 44.4116 39.0787 44.7995 38.4969C45.2843 37.9151 45.7692 37.3333 46.254 36.7515L46.8358 35.9757C47.1267 35.4909 47.2237 35.103 47.0298 34.6182C46.8358 34.2303 46.5449 33.9394 45.9631 33.7455C45.6722 33.6485 45.4783 33.5515 45.1873 33.5515C44.8964 33.4546 44.7025 33.4546 44.5086 33.2606C44.3146 33.1637 44.2177 33.0667 44.0237 32.9697C43.8298 32.8727 43.7328 32.7758 43.4419 32.5818C44.1207 31.8061 44.6055 30.9334 44.9934 30.1576C45.3813 29.2849 45.7692 28.4122 46.0601 27.6365C46.351 26.8607 46.6419 26.085 46.9328 25.3092C47.2237 24.5335 47.5146 23.7578 47.8055 22.982C47.9995 22.4972 48.0964 22.1093 48.0964 21.8184C48.0964 21.5275 48.0964 21.2366 47.9995 20.7517C47.7085 20.8487 47.4176 21.0426 47.2237 21.2366C47.0298 21.4305 46.7389 21.6245 46.5449 21.8184C46.157 22.3032 45.6722 22.885 45.2843 23.3699C44.8964 23.8547 44.6055 24.4365 44.3146 25.1153C44.2177 25.4062 44.0237 25.7941 43.9268 26.085C43.8298 26.3759 43.7328 26.7638 43.6358 27.0547C43.4419 27.9274 43.151 28.7031 42.8601 29.5758C42.5692 30.3516 42.3753 31.2243 42.3753 32.194L42.0843 36.6545C42.0843 37.1393 41.9874 37.7211 41.9874 38.206C41.9874 38.6908 41.9874 39.1757 41.9874 39.7575C41.9874 40.4363 41.5995 40.7272 40.9207 40.5332L40.3389 40.3393C39.951 40.2423 39.6601 40.0484 39.5631 39.9514C39.4662 39.8544 39.4662 39.5635 39.4662 39.0787C39.5631 38.3999 39.6601 37.8181 39.6601 37.1393C39.7571 36.4606 39.7571 35.8788 39.7571 35.2C39.7571 34.0364 39.8541 32.9697 39.7571 31.8061C39.7571 30.7394 39.7571 29.5758 39.7571 28.4122C39.7571 27.1516 39.6601 25.891 39.5631 24.7274C39.3692 23.4668 39.1753 22.3032 38.8844 21.0426C38.8844 20.9457 38.7874 20.7517 38.7874 20.6548C38.7874 20.5578 38.6904 20.3639 38.6904 20.2669C39.1753 20.073 39.7571 20.073 40.145 20.2669C40.6298 20.3639 41.0177 20.6548 41.3086 21.1396C41.5995 21.5275 41.7934 21.9154 41.8904 22.3032C42.0843 22.6911 42.0843 23.1759 42.0843 23.6608C42.0843 24.1456 42.0843 24.7274 42.0843 25.2123C42.0843 25.6971 42.0843 26.2789 42.0843 26.7638C42.1813 26.7638 42.2783 26.8607 42.3753 26.8607C42.4722 26.7638 42.4722 26.5698 42.5692 26.4729C42.6662 26.3759 42.6662 26.182 42.7631 26.085C43.151 24.7274 43.8298 23.5638 44.6055 22.5941C45.4783 21.6245 46.4479 20.6548 47.5146 19.879C47.6116 19.7821 47.8055 19.6851 47.9995 19.5881C48.2904 19.4912 48.4843 19.3942 48.5813 19.3942Z" fill="white"/>
<path d="M56.6298 36.5571C56.7268 36.654 56.8238 36.654 56.9208 36.654C57.0177 36.654 57.2117 36.654 57.3086 36.5571C57.4056 36.4601 57.5995 36.3631 57.6965 36.2662C57.8904 36.1692 57.9874 36.0722 58.1813 35.8783C58.3753 35.7813 58.5692 35.5874 58.8601 35.4904C58.8601 35.6843 58.7632 35.9753 58.6662 36.2662C58.5692 36.5571 58.3753 36.751 57.9874 37.0419C57.6965 37.3328 57.4056 37.5267 57.2117 37.6237C57.0177 37.7207 56.7268 37.7207 56.3389 37.6237H56.242C56.145 37.8176 56.145 38.1086 56.048 38.3025C55.9511 38.4964 55.9511 38.6904 55.7571 38.9813C55.5632 39.3691 55.3692 39.757 55.0783 40.1449C54.7874 40.5328 54.3996 40.6297 53.8177 40.7267C52.945 40.7267 52.0723 40.4358 51.1996 39.854C50.9087 39.66 50.7147 39.4661 50.6178 39.1752C50.5208 38.8843 50.4238 38.5934 50.4238 38.3025V35.3934C50.4238 35.2965 50.4238 35.1995 50.4238 35.1025C50.4238 35.0056 50.4238 34.9086 50.4238 34.8116L50.6178 32.8723C50.8117 31.9026 51.0056 31.0299 51.2966 30.1572C51.5875 29.2845 51.8784 28.4117 52.2662 27.539L52.5571 27.0542C52.8481 26.4724 53.3329 26.2784 54.0117 26.4724C54.3996 26.5694 54.7874 26.6663 55.1753 26.7633C55.5632 26.8603 55.9511 26.9572 56.3389 27.0542V27.1512V27.2481C56.048 27.4421 55.8541 27.539 55.5632 27.733C55.2723 27.8299 55.0783 28.0239 54.8844 28.2178C54.6905 28.4117 54.4965 28.6057 54.3996 28.8966C54.3026 29.1875 54.2056 29.4784 54.3026 29.7693C54.7874 29.8663 55.2723 29.9632 55.7571 30.0602C56.242 30.1572 56.7268 30.2541 57.2117 30.2541L57.7935 32.7753C57.7935 32.9692 57.7935 33.1632 57.6965 33.3571C57.5995 33.5511 57.5995 33.648 57.5026 33.842C57.4056 34.0359 57.3086 34.2298 57.2117 34.4238C57.1147 34.6177 57.0177 34.9086 56.9208 35.2965L56.6298 36.5571ZM54.3026 38.9813C54.4965 38.4964 54.6905 38.0116 54.8844 37.5267C55.0783 37.0419 55.1753 36.5571 55.3692 36.0722L55.2723 35.6843C55.1753 35.2965 55.0783 34.8116 55.0783 34.1329C55.0783 33.4541 55.0783 32.7753 55.1753 32.0965C54.9814 31.8056 54.7874 31.5147 54.5935 31.2238C54.4965 30.9329 54.3996 30.545 54.3996 30.1572C54.3026 30.1572 54.2056 30.1572 54.1086 30.1572C54.1086 30.2541 54.0117 30.2541 54.0117 30.3511C54.0117 30.4481 53.9147 30.4481 53.9147 30.545C53.5268 31.6117 53.2359 32.7753 53.042 33.9389C52.8481 35.1025 52.7511 36.2662 52.7511 37.4298C52.7511 37.7207 52.7511 38.0116 52.7511 38.3025C52.7511 38.5934 52.8481 38.8843 52.945 39.1752C52.945 39.2722 53.042 39.3691 53.139 39.4661C53.2359 39.5631 53.3329 39.66 53.4299 39.757C53.5268 39.757 53.6238 39.757 53.7208 39.757C53.8177 39.66 53.9147 39.66 54.0117 39.5631C54.1087 39.3691 54.2056 39.1752 54.3026 38.9813Z" fill="white"/>
<path d="M66.6177 27.7334C67.2965 27.5395 67.8783 27.6364 68.3631 28.2183C68.5571 28.4122 68.654 28.7031 68.654 28.994C68.654 29.2849 68.654 29.5758 68.4601 29.8667C68.2661 30.3515 68.0722 30.8364 67.8783 31.3212C67.6843 31.8061 67.4904 32.2909 67.3934 32.7758C67.2965 32.9697 67.1995 33.1636 67.0055 33.4545C66.8116 33.7454 66.7146 34.0363 66.6177 34.1333V34.8121C66.5207 34.8121 66.3268 34.8121 66.2298 34.8121C66.1328 34.8121 66.0359 34.8121 65.9389 34.7151C65.454 34.5212 65.0662 34.3272 64.9692 34.1333C64.8722 33.8424 64.8722 33.4545 64.9692 32.9697C65.1631 32.4848 65.2601 32 65.454 31.5152C65.648 31.0303 65.8419 30.5455 65.9389 30.0606L66.2298 29.1879C66.0359 29.2849 65.8419 29.3819 65.745 29.4788C65.648 29.5758 65.551 29.7697 65.454 29.8667C64.8722 30.7394 64.3874 31.6121 63.9025 32.5818C63.4177 33.5515 63.1268 34.5212 62.8359 35.4909C62.6419 36.0727 62.448 36.6545 62.2541 37.1393C62.0601 37.7211 61.8662 38.206 61.6723 38.7878C61.5753 38.9817 61.4783 39.2726 61.5753 39.4665C61.5753 39.6605 61.6723 39.9514 61.8662 40.1453C61.4783 40.3393 61.1874 40.5332 60.7995 40.5332C60.4117 40.5332 60.1208 40.5332 59.8298 40.3393C59.5389 40.2423 59.248 39.9514 59.0541 39.6605C58.8602 39.3696 58.7632 38.9817 58.7632 38.5938C58.7632 38.3029 58.7632 37.9151 58.8602 37.6242C58.9571 37.3332 58.9571 36.9454 59.0541 36.6545L59.1511 35.5878C59.248 35.103 59.248 34.7151 59.345 34.4242C59.345 34.1333 59.442 33.7454 59.442 33.4545C59.442 33.1636 59.5389 32.7758 59.5389 32.3879C59.6359 32 59.6359 31.6121 59.7329 31.1273C59.7329 30.4485 59.8298 29.8667 60.0238 29.1879C60.2177 28.5092 60.3147 27.9273 60.5086 27.2486C60.6056 26.8607 60.7026 26.6668 60.8965 26.5698C60.9935 26.4728 61.2844 26.4728 61.7692 26.5698C62.1571 26.6668 62.351 26.6668 62.545 26.7637C62.7389 26.8607 62.9329 26.9577 63.1268 27.1516C62.8359 28.2183 62.545 29.2849 62.351 30.3515C62.1571 31.4182 62.1571 32.4848 62.351 33.6485L63.6116 31.6121C63.9995 31.0303 64.2904 30.4485 64.5813 29.8667C64.8722 29.2849 65.3571 28.8001 65.8419 28.4122C65.9389 28.3152 66.1328 28.2183 66.3268 28.1213C66.2298 27.9273 66.4237 27.8304 66.6177 27.7334Z" fill="white"/>
<path d="M76.7025 38.3999C77.0904 38.109 77.5752 37.6242 78.06 37.1393C78.5449 36.5575 78.9328 36.0727 79.3206 35.5878C79.3206 36.4605 79.2237 37.1393 79.0297 37.7211C78.8358 38.3029 78.5449 38.7878 78.254 39.0787C77.6722 39.5635 77.0904 39.7575 76.6055 39.6605C76.1207 39.5635 75.5388 39.2726 75.054 38.7878C74.7631 38.5938 74.6661 38.3999 74.6661 38.109C74.5692 37.6242 74.4722 37.0424 74.4722 36.5575C74.3752 36.0727 74.5692 35.5878 74.7631 35.103L75.6358 33.3576C75.7328 33.0667 75.9267 32.6788 75.9267 32.2909C76.0237 31.903 76.0237 31.5152 75.9267 31.0303C75.7328 31.2243 75.6358 31.3212 75.5388 31.4182C75.4419 31.5152 75.3449 31.6121 75.2479 31.7091C74.5692 32.7758 73.7934 33.9394 73.1146 35.006C72.4358 36.0727 71.7571 37.2363 71.2722 38.4969C71.1752 38.6908 71.0783 38.7878 70.9813 38.9817C70.8843 39.1757 70.7874 39.2726 70.6904 39.4666C70.1086 39.4666 69.6237 39.3696 69.2359 38.9817C68.848 38.6908 68.6541 38.206 68.6541 37.7211C68.6541 37.3333 68.6541 36.8484 68.751 36.1696C68.848 35.4909 68.848 34.8121 68.945 34.1333C69.0419 33.3576 69.1389 32.4849 69.2359 31.6121C69.3328 31.5152 69.4298 31.4182 69.4298 31.3212C69.4298 31.2243 69.4298 31.0303 69.4298 30.9334C69.4298 30.8364 69.4298 30.7394 69.4298 30.5455C69.4298 30.3516 69.4298 30.2546 69.4298 30.0607C69.4298 29.9637 69.5268 29.7698 69.5268 29.6728C69.5268 29.5758 69.6237 29.4788 69.6237 29.3819C69.6237 29.3819 69.8177 29.2849 69.9146 29.2849C70.1086 29.2849 70.3025 29.2849 70.4965 29.3819C70.6904 29.4788 70.8843 29.4788 71.0783 29.5758C71.2722 29.6728 71.3692 29.7698 71.3692 29.9637L71.4661 31.1273C71.3692 31.4182 71.3692 31.6121 71.3692 31.9031C71.3692 32.194 71.3692 32.4849 71.3692 32.7758C71.3692 33.0667 71.2722 33.2606 71.2722 33.4545C71.1752 33.6485 71.1752 33.9394 71.1752 34.1333L71.3692 34.2303C71.4661 34.1333 71.5631 34.0363 71.6601 34.0363C71.7571 33.9394 71.854 33.9394 71.854 33.8424C72.3389 33.1636 72.8237 32.4849 73.4055 31.8061C73.9873 31.2243 74.5692 30.6425 75.2479 30.0607C75.5388 29.7698 75.8298 29.6728 76.2176 29.5758C76.5085 29.4788 76.7025 29.5758 76.8964 29.6728C77.0904 29.7698 77.2843 29.9637 77.4782 30.2546C77.6722 30.5455 77.8661 30.8364 77.8661 31.1273C77.9631 31.4182 77.8661 31.7091 77.8661 32.097C77.6722 32.8727 77.5752 33.5515 77.4782 34.3273C77.3813 35.103 77.1873 35.8787 76.8964 36.5575C76.7994 36.7515 76.7025 37.0424 76.7025 37.3333C76.2176 37.8181 76.3146 38.109 76.7025 38.3999Z" fill="white"/>
<path d="M86.2056 28.6065C86.6905 28.7034 86.8844 28.9943 86.7874 29.3822C86.7874 29.4792 86.6905 29.5761 86.6905 29.6731C86.6905 29.7701 86.5935 29.867 86.5935 29.964C86.1086 30.7398 85.6238 31.5155 85.042 32.1943C84.4602 32.8731 83.7814 33.5518 83.0056 34.2306C82.7147 34.5215 82.5208 34.7155 82.2299 35.0064C81.939 35.2973 81.745 35.5882 81.5511 35.8791C81.4541 36.073 81.3572 36.2669 81.3572 36.5578C81.3572 36.7518 81.3572 37.0427 81.3572 37.2366C81.3572 37.6245 81.4541 37.9154 81.745 38.4002C82.0359 38.7881 82.3269 39.079 82.7147 39.3699C82.9087 39.2729 83.1026 39.079 83.3935 38.8851C83.6844 38.6911 83.8784 38.4972 84.0723 38.4002C84.7511 37.8184 85.3329 37.2366 86.0117 36.8487C86.6905 36.3639 87.1753 35.976 87.4662 35.6851C87.4662 35.8791 87.3692 36.17 87.2723 36.3639C87.2723 36.5578 87.1753 36.7518 87.0783 36.9457C86.9814 37.1397 86.8844 37.3336 86.7874 37.5275C86.4965 38.0124 86.1086 38.4972 85.6238 38.8851C85.139 39.2729 84.6541 39.6608 84.0723 40.0487C83.6844 40.3396 83.3935 40.4366 83.0056 40.4366C82.6178 40.4366 82.2299 40.3396 81.745 40.2426C81.0663 40.0487 80.3875 39.7578 79.8057 39.273C79.2238 38.7881 78.836 38.2063 78.5451 37.6245C78.5451 37.5275 78.4481 37.4306 78.4481 37.3336C78.4481 37.2366 78.4481 37.1397 78.3511 36.9457C78.3511 36.7518 78.3511 36.5578 78.2542 36.3639C78.2542 36.17 78.2542 35.976 78.2542 35.6851C78.2542 35.4912 78.2542 35.2003 78.3511 34.9094C78.3511 34.6185 78.4481 34.3276 78.642 33.9397C78.836 33.2609 79.0299 32.6791 79.3208 32.0973C79.6117 31.5155 79.9026 30.8367 80.1935 30.2549C80.2905 30.061 80.3875 29.7701 80.5814 29.5761C80.6784 29.3822 80.8723 29.0913 80.9693 28.8974C81.0663 28.8004 81.1632 28.7034 81.2602 28.5095C81.3572 28.4125 81.4541 28.3156 81.5511 28.2186C81.939 27.8307 82.5208 27.6368 83.1996 27.8307C83.3935 27.8307 83.4905 27.9277 83.6844 27.9277C83.8784 27.9277 84.0723 27.9277 84.2662 28.0247C84.5571 28.0247 84.7511 28.1216 84.848 28.2186C85.2359 28.2186 85.7208 28.4125 86.2056 28.6065ZM82.1329 32.5822C83.5874 31.1276 84.4602 29.964 84.848 28.9943C84.4602 28.8974 84.1693 28.8004 84.0723 28.8004C83.9753 28.8004 83.7814 28.8974 83.5874 29.1883C83.1026 29.6731 82.8117 30.158 82.5208 30.6428C82.2299 31.1276 82.0359 31.7094 81.939 32.2912V32.3882C82.0359 32.4852 82.1329 32.5822 82.1329 32.5822Z" fill="white"/>
<path d="M93.0901 36.5571C93.187 36.654 93.284 36.654 93.381 36.654C93.4779 36.654 93.6719 36.654 93.7688 36.5571C93.8658 36.4601 94.0597 36.3631 94.1567 36.2662C94.3506 36.1692 94.4476 36.0722 94.6416 35.8783C94.8355 35.7813 95.0294 35.5874 95.3203 35.4904C95.3203 35.6843 95.2234 35.9753 95.1264 36.2662C95.0294 36.5571 94.8355 36.751 94.4476 37.0419C94.1567 37.3328 93.8658 37.5267 93.6719 37.6237C93.4779 37.7207 93.187 37.7207 92.7991 37.6237H92.7022C92.6052 37.8176 92.6052 38.1086 92.5082 38.3025C92.4113 38.4964 92.4113 38.6904 92.2173 38.9813C92.0234 39.3691 91.8295 39.757 91.5385 40.1449C91.2476 40.5328 90.8598 40.6297 90.2779 40.7267C89.4052 40.7267 88.5325 40.4358 87.6598 39.854C87.3689 39.66 87.1749 39.4661 87.078 39.1752C86.981 38.8843 86.884 38.5934 86.884 38.3025V35.3934C86.884 35.2965 86.884 35.1995 86.884 35.1025C86.884 35.0056 86.884 34.9086 86.884 34.8116L87.078 32.8723C87.2719 31.9026 87.4658 31.0299 87.7568 30.1572C88.0477 29.2845 88.3386 28.4117 88.7264 27.539L89.0174 27.0542C89.3083 26.4724 89.7931 26.2784 90.4719 26.4724C90.8598 26.5694 91.2476 26.6663 91.6355 26.7633C92.0234 26.8603 92.4113 26.9572 92.7991 27.0542V27.1512V27.2481C92.5082 27.4421 92.3143 27.539 92.0234 27.733C91.7325 27.8299 91.5385 28.0239 91.3446 28.2178C91.1507 28.4117 90.9567 28.6057 90.8598 28.8966C90.7628 29.1875 90.6658 29.4784 90.7628 29.7693C91.2476 29.8663 91.7325 29.9632 92.2173 30.0602C92.7022 30.1572 93.187 30.2541 93.6719 30.2541L94.2537 32.7753C94.2537 32.9692 94.2537 33.1632 94.1567 33.3571C94.0597 33.5511 94.0597 33.648 93.9628 33.842C93.8658 34.0359 93.7688 34.2298 93.6719 34.4238C93.5749 34.6177 93.4779 34.9086 93.381 35.2965L93.0901 36.5571ZM90.7628 38.9813C90.9567 38.4964 91.1507 38.0116 91.3446 37.5267C91.5385 37.0419 91.6355 36.5571 91.8295 36.0722L91.7325 35.6843C91.6355 35.2965 91.5385 34.8116 91.5385 34.1329C91.5385 33.4541 91.5385 32.7753 91.6355 32.0965C91.4416 31.8056 91.2476 31.5147 91.0537 31.2238C90.9567 30.9329 90.8598 30.545 90.8598 30.1572C90.7628 30.1572 90.6658 30.1572 90.5689 30.1572C90.5689 30.2541 90.4719 30.2541 90.4719 30.3511C90.4719 30.4481 90.3749 30.4481 90.3749 30.545C89.987 31.6117 89.6961 32.7753 89.5022 33.9389C89.4052 34.9086 89.2113 36.0722 89.2113 37.3328C89.2113 37.6237 89.2113 37.9146 89.2113 38.2055C89.2113 38.4964 89.3083 38.7873 89.4052 39.0782C89.4052 39.1752 89.5022 39.2722 89.5992 39.3691C89.6961 39.4661 89.7931 39.5631 89.8901 39.66C89.987 39.66 90.084 39.66 90.181 39.66C90.2779 39.5631 90.3749 39.5631 90.4719 39.4661C90.5689 39.3691 90.6658 39.1752 90.7628 38.9813Z" fill="white"/>
<path d="M11.2486 47.8052C11.2486 47.9021 11.2486 47.9021 11.2486 47.8052C11.1516 47.9021 11.1516 47.9021 11.1516 47.9021H11.0546C10.9576 47.9021 10.9576 47.9021 10.8607 47.9021H10.7637L9.50311 46.1567V47.9021C9.50311 47.9021 9.50311 47.9021 9.40614 47.9021H9.30917H9.2122H9.11523V44.6052C9.11523 44.6052 9.11523 44.6052 9.2122 44.6052H9.30917H9.40614H9.50311V46.1567L10.6667 44.6052C10.6667 44.6052 10.6667 44.6052 10.7637 44.6052C10.7637 44.6052 10.7637 44.6052 10.8607 44.6052H10.9576H11.0546H11.1516C11.1516 44.6052 11.1516 44.6052 11.1516 44.7022C11.1516 44.7022 11.1516 44.7992 11.0546 44.7992L9.89099 46.1567L11.1516 47.8052C11.2486 47.7082 11.2486 47.8052 11.2486 47.8052Z" fill="white"/>
<path d="M14.4486 47.7088C14.4486 47.8057 14.4486 47.8057 14.4486 47.7088C14.4486 47.8057 14.4486 47.8057 14.4486 47.9027C14.4486 47.9027 14.4486 47.9027 14.3516 47.9027H14.2546C14.1577 47.9027 14.1577 47.9027 14.1577 47.9027H14.0607L13.7698 47.03H12.3153L12.0244 47.8057C12.0244 47.8057 12.0244 47.8057 11.9274 47.8057H11.8304C11.7334 47.8057 11.7334 47.8057 11.7334 47.8057H11.6365C11.6365 47.8057 11.6365 47.8057 11.6365 47.7088V47.6118L12.8001 44.4119C12.8001 44.4119 12.8001 44.4119 12.8971 44.4119H12.994H13.091C13.188 44.4119 13.188 44.4119 13.188 44.4119H13.2849C13.2849 44.4119 13.2849 44.4119 13.3819 44.4119C13.3819 44.4119 13.3819 44.4119 13.3819 44.5088L14.4486 47.7088ZM12.8971 44.8967L12.3153 46.6421H13.5759L12.8971 44.8967Z" fill="white"/>
<path d="M16.776 47.7082C16.776 47.8052 16.776 47.8052 16.776 47.9021H15.2245H15.1275L15.0305 47.8052V44.6052C15.0305 44.6052 15.0305 44.6052 15.1275 44.6052H15.2245H15.3214H15.4184V47.5143H16.679C16.776 47.5143 16.776 47.6112 16.776 47.7082Z" fill="white"/>
<path d="M17.7455 47.8052C17.6486 47.9021 17.7455 47.9021 17.7455 47.8052C17.6486 47.9021 17.6486 47.9021 17.6486 47.9021H17.5516H17.4546H17.3577V44.6052C17.3577 44.6052 17.3577 44.6052 17.4546 44.6052H17.5516H17.6486H17.7455V47.8052Z" fill="white"/>
<path d="M22.3029 47.8052C22.3029 47.9021 22.3029 47.9021 22.3029 47.8052C22.2059 47.9021 22.2059 47.9021 22.2059 47.9021H22.109H22.012H21.915V44.8961L20.7514 47.9021C20.7514 47.9021 20.7514 47.9021 20.6544 47.9021H20.5575H20.4605C20.4605 47.9021 20.4605 47.9021 20.3635 47.9021L19.1999 44.8961V47.9021C19.1999 47.9021 19.1999 47.9021 19.1029 47.9021H19.006H18.909H18.812V44.7992C18.812 44.7022 18.812 44.7022 18.909 44.6052H19.006H19.2969C19.3938 44.6052 19.3938 44.6052 19.4908 44.6052C19.4908 44.6052 19.5878 44.6052 19.5878 44.7022C19.3938 44.6052 19.3938 44.6052 19.3938 44.6052C19.3938 44.6052 19.3938 44.7022 19.4908 44.7022L20.4605 47.2234L21.4302 44.7992C21.4302 44.7022 21.4302 44.7022 21.5271 44.7022L21.6241 44.6052H21.7211H21.8181H22.109H22.2059C22.2059 44.6052 22.2059 44.6052 22.3029 44.6052C22.3029 44.6052 22.3029 44.6052 22.3029 44.7022V44.7992V47.8052Z" fill="white"/>
<path d="M25.7938 47.7088C25.7938 47.8057 25.8908 47.8057 25.7938 47.7088C25.7938 47.8057 25.7938 47.8057 25.7938 47.9027C25.7938 47.9027 25.7938 47.9027 25.6968 47.9027H25.5999C25.5029 47.9027 25.5029 47.9027 25.5029 47.9027H25.4059L25.115 47.03H23.6605L23.3696 47.8057C23.3696 47.8057 23.3696 47.8057 23.2726 47.8057H23.1756C23.0787 47.8057 23.0787 47.8057 23.0787 47.8057H22.9817C22.9817 47.8057 22.9817 47.8057 22.9817 47.7088V47.6118L24.1453 44.4119C24.1453 44.4119 24.1453 44.4119 24.2423 44.4119H24.3393H24.4362C24.5332 44.4119 24.5332 44.4119 24.5332 44.4119H24.6302C24.6302 44.4119 24.6302 44.4119 24.7271 44.4119C24.7271 44.4119 24.7271 44.4119 24.7271 44.5088L25.7938 47.7088ZM24.3393 44.8967L23.7574 46.6421H24.9211L24.3393 44.8967Z" fill="white"/>
<path d="M28.9936 47.7088C28.9936 47.8057 28.9936 47.8057 28.8967 47.9027C28.8967 47.9027 28.8967 47.9027 28.7997 47.9027C28.7027 47.9027 28.7997 47.9027 28.7027 47.9027H28.5088H28.4118C28.4118 47.9027 28.3149 47.9027 28.3149 47.8057L28.2179 47.7088C28.2179 47.7088 28.1209 47.6118 28.1209 47.5148L27.1512 45.5755C27.0543 45.4785 27.0543 45.3815 26.9573 45.2846C26.8603 45.1876 26.8603 45.0906 26.7634 44.9937C26.7634 45.0906 26.7634 45.2846 26.7634 45.3815C26.7634 45.4785 26.7634 45.6725 26.7634 45.7694V47.8057C26.7634 47.8057 26.7634 47.8057 26.6664 47.8057H26.5694H26.4725H26.3755V44.6058C26.3755 44.5088 26.3755 44.5088 26.4725 44.4119H26.5694H26.7634C26.8603 44.4119 26.8603 44.4119 26.8603 44.4119H26.9573C26.9573 44.4119 27.0543 44.4119 27.0543 44.5088L27.1512 44.6058L27.927 46.0603C28.024 46.1573 28.024 46.2543 28.024 46.3512C28.024 46.4482 28.1209 46.5452 28.1209 46.6421C28.1209 46.7391 28.2179 46.8361 28.2179 46.933C28.2179 47.03 28.3149 47.127 28.3149 47.2239C28.3149 47.127 28.3149 46.933 28.3149 46.8361C28.3149 46.6421 28.3149 46.5452 28.3149 46.4482V44.6058C28.3149 44.6058 28.3149 44.6058 28.4118 44.6058H28.5088H28.6058H28.7027V47.7088H28.9936Z" fill="white"/>
<path d="M31.9999 44.702C31.9999 44.799 31.9999 44.799 31.9999 44.8959H31.0302V47.9019C31.0302 47.9019 31.0302 47.9019 30.9332 47.9019H30.8362H30.7393H30.6423V44.8959H29.6726C29.6726 44.8959 29.6726 44.8959 29.6726 44.799V44.702V44.605C29.6726 44.605 29.6726 44.605 29.6726 44.5081H32.0968C31.9999 44.5081 31.9999 44.5081 31.9999 44.702C31.9999 44.605 31.9999 44.605 31.9999 44.702Z" fill="white"/>
<path d="M34.715 47.7088C34.715 47.8057 34.715 47.8057 34.715 47.7088C34.715 47.8057 34.715 47.8057 34.715 47.9027C34.715 47.9027 34.715 47.9027 34.618 47.9027H34.521C34.4241 47.9027 34.4241 47.9027 34.4241 47.9027H34.3271L33.9392 47.03H32.4847L32.1938 47.8057C32.1938 47.8057 32.1938 47.8057 32.0968 47.8057H31.9998C31.9029 47.8057 31.9029 47.8057 31.9029 47.8057H31.8059C31.8059 47.8057 31.8059 47.8057 31.8059 47.7088V47.6118L32.9695 44.4119C32.9695 44.4119 32.9695 44.4119 33.0665 44.4119H33.1635H33.2604C33.3574 44.4119 33.3574 44.4119 33.3574 44.4119H33.4544C33.4544 44.4119 33.4544 44.4119 33.5513 44.4119C33.5513 44.4119 33.5513 44.4119 33.5513 44.5088L34.715 47.7088ZM33.1635 44.8967L32.5817 46.6421H33.7453L33.1635 44.8967Z" fill="white"/>
<path d="M37.8179 47.7088C37.8179 47.8057 37.8179 47.8057 37.7209 47.9027C37.7209 47.9027 37.7209 47.9027 37.624 47.9027C37.624 47.9027 37.624 47.9027 37.527 47.9027H37.3331H37.2361C37.2361 47.9027 37.1391 47.9027 37.1391 47.8057L37.0422 47.7088C37.0422 47.7088 36.9452 47.6118 36.9452 47.5148L35.8785 45.5755C35.7816 45.4785 35.7816 45.3815 35.6846 45.2846C35.5876 45.1876 35.5876 45.0906 35.4907 44.9937C35.4907 45.0906 35.4907 45.2846 35.4907 45.3815C35.4907 45.4785 35.4907 45.6725 35.4907 45.7694V47.8057C35.4907 47.8057 35.4907 47.8057 35.3937 47.8057H35.2967H35.1998H35.1028V44.6058C35.1028 44.5088 35.1028 44.5088 35.1998 44.4119H35.2967H35.4907C35.5876 44.4119 35.5876 44.4119 35.5876 44.4119H35.6846C35.6846 44.4119 35.7816 44.4119 35.7816 44.5088L35.8785 44.6058L36.6543 46.0603C36.7513 46.1573 36.7513 46.2543 36.7513 46.3512C36.7513 46.4482 36.8482 46.5452 36.8482 46.6421C36.8482 46.7391 36.9452 46.8361 36.9452 46.933C36.9452 47.03 37.0422 47.127 37.0422 47.2239C37.0422 47.127 37.0422 46.933 37.0422 46.8361C37.0422 46.6421 37.0422 46.5452 37.0422 46.4482V44.6058C37.0422 44.6058 37.0422 44.6058 37.1391 44.6058H37.2361H37.3331H37.43V47.7088H37.8179Z" fill="white"/>
<path d="M42.0846 44.702C42.0846 44.799 42.0846 44.799 42.0846 44.8959H41.1149V47.9019C41.1149 47.9019 41.1149 47.9019 41.0179 47.9019H40.921H40.824H40.727V44.8959H39.7573C39.7573 44.8959 39.7573 44.8959 39.7573 44.799V44.702V44.605C39.7573 44.605 39.7573 44.605 39.7573 44.5081H42.1815C42.0846 44.5081 42.0846 44.5081 42.0846 44.702C42.0846 44.605 42.0846 44.605 42.0846 44.702Z" fill="white"/>
<path d="M45.2846 46.1573C45.2846 46.4482 45.2846 46.6421 45.1877 46.933C45.0907 47.127 44.9937 47.3209 44.8968 47.5148C44.7998 47.7088 44.6059 47.8057 44.4119 47.9027C44.218 47.9997 44.024 47.9997 43.7331 47.9997C43.4422 47.9997 43.2483 47.9997 43.0544 47.9027C42.8604 47.8057 42.6665 47.7088 42.5695 47.6118C42.4725 47.4179 42.3756 47.3209 42.2786 47.03C42.1816 46.8361 42.1816 46.5452 42.1816 46.2543C42.1816 45.9634 42.1816 45.7694 42.2786 45.4785C42.3756 45.2846 42.4725 45.0906 42.5695 44.8967C42.6665 44.7028 42.8604 44.6058 43.0544 44.5088C43.2483 44.4119 43.4422 44.4119 43.7331 44.4119C44.024 44.4119 44.218 44.4119 44.4119 44.5088C44.6059 44.6058 44.7998 44.7028 44.8968 44.7997C44.9937 44.8967 45.0907 45.0906 45.1877 45.3815C45.2846 45.5755 45.2846 45.8664 45.2846 46.1573ZM44.7998 46.1573C44.7998 45.9634 44.7998 45.7694 44.7028 45.5755C44.7028 45.3815 44.6059 45.2846 44.5089 45.1876C44.4119 45.0906 44.315 44.9937 44.218 44.8967C44.121 44.7997 43.9271 44.7997 43.7331 44.7997C43.5392 44.7997 43.3453 44.7997 43.2483 44.8967C43.1513 44.9937 43.0544 45.0906 42.9574 45.1876C42.8604 45.2846 42.8604 45.4785 42.7635 45.5755C42.7635 45.7694 42.6665 45.8664 42.6665 46.0603C42.6665 46.2543 42.6665 46.4482 42.7635 46.6421C42.7635 46.8361 42.8604 46.933 42.9574 47.127C43.0544 47.2239 43.1513 47.3209 43.2483 47.4179C43.3453 47.5148 43.5392 47.5148 43.7331 47.5148C43.9271 47.5148 44.121 47.5148 44.218 47.4179C44.315 47.3209 44.5089 47.2239 44.5089 47.127C44.6059 47.03 44.6059 46.8361 44.7028 46.6421C44.7998 46.5452 44.7998 46.3512 44.7998 46.1573Z" fill="white"/>
<path d="M48.5815 46.6414C48.5815 46.8353 48.5815 47.0292 48.4846 47.2232C48.3876 47.4171 48.2906 47.5141 48.1937 47.611C48.0967 47.708 47.9028 47.805 47.8058 47.9019C47.6118 47.9989 47.4179 47.9989 47.224 47.9989C47.03 47.9989 46.8361 47.9989 46.7391 47.9019C46.5452 47.805 46.4482 47.805 46.3513 47.708C46.2543 47.611 46.1573 47.5141 46.0603 47.3201C45.9634 47.1262 45.9634 46.9323 45.9634 46.7383V44.605C45.9634 44.605 45.9634 44.605 46.0603 44.605H46.1573H46.2543H46.3513V46.6414C46.3513 46.8353 46.3513 46.9323 46.4482 47.0292C46.4482 47.1262 46.5452 47.2232 46.6422 47.3201C46.7391 47.4171 46.8361 47.4171 46.9331 47.5141C47.03 47.5141 47.127 47.611 47.3209 47.611C47.4179 47.611 47.6119 47.611 47.7088 47.5141C47.8058 47.5141 47.9028 47.4171 47.9997 47.3201C48.0967 47.2232 48.0967 47.1262 48.1937 47.0292C48.1937 46.9323 48.2906 46.7383 48.2906 46.6414V44.5081C48.2906 44.5081 48.2906 44.5081 48.3876 44.5081H48.4846H48.5815H48.6785V46.6414H48.5815Z" fill="white"/>
<path d="M51.7817 47.8052C51.7817 47.9021 51.7817 47.9021 51.7817 47.8052C51.6847 47.9021 51.6847 47.9021 51.6847 47.9021H51.5878H51.4908H51.3938C51.3938 47.9021 51.3938 47.9021 51.3938 47.8052L51.1029 47.0294C51.1029 46.9325 51.006 46.8355 51.006 46.7385C51.006 46.6416 50.909 46.6416 50.909 46.5446C50.812 46.4476 50.812 46.4476 50.7151 46.4476C50.6181 46.4476 50.5211 46.4476 50.4241 46.4476H50.1332V47.9021C50.1332 47.9021 50.1332 47.9021 50.0363 47.9021H49.9393H49.8423H49.7454V44.7022C49.7454 44.6052 49.7454 44.6052 49.8423 44.6052H49.9393H50.4241C50.5211 44.6052 50.6181 44.6052 50.6181 44.6052C50.7151 44.6052 50.7151 44.6052 50.812 44.6052C50.909 44.6052 51.1029 44.7022 51.1999 44.7022C51.2969 44.7992 51.3938 44.7992 51.4908 44.8961C51.5878 44.9931 51.5878 45.0901 51.6847 45.187C51.6847 45.284 51.7817 45.381 51.7817 45.4779C51.7817 45.5749 51.7817 45.6719 51.7817 45.7688C51.7817 45.8658 51.6847 45.9628 51.6847 45.9628C51.5878 46.0597 51.5878 46.0597 51.4908 46.1567C51.3938 46.2537 51.2969 46.2537 51.1999 46.2537C51.2969 46.2537 51.2969 46.3506 51.3938 46.3506L51.4908 46.4476C51.4908 46.5446 51.5878 46.5446 51.5878 46.6416C51.5878 46.7385 51.6847 46.8355 51.6847 46.8355L51.9756 47.6112C51.7817 47.7082 51.7817 47.7082 51.7817 47.8052ZM51.1029 45.381C51.1029 45.284 51.1029 45.0901 51.006 44.9931C50.909 44.8961 50.812 44.7992 50.7151 44.7992C50.7151 44.7992 50.6181 44.7992 50.5211 44.7992C50.4241 44.7992 50.4241 44.7992 50.3272 44.7992H49.9393V45.9628H50.4241C50.5211 45.9628 50.6181 45.9628 50.7151 45.9628C50.812 45.9628 50.909 45.8658 50.909 45.8658C51.006 45.7688 51.006 45.7688 51.006 45.6719C51.1029 45.5749 51.1029 45.4779 51.1029 45.381Z" fill="white"/>
<path d="M56.3391 46.1574C56.3391 46.4483 56.3391 46.7392 56.2421 46.9331C56.1452 47.1271 56.0482 47.321 55.9512 47.515C55.8543 47.6119 55.6603 47.8059 55.3694 47.8059C55.1755 47.9028 54.8846 47.9028 54.5937 47.9028H53.9149H53.8179L53.7209 47.8059V44.7999C53.7209 44.7029 53.7209 44.7029 53.8179 44.7029H53.9149H54.6906C54.9815 44.7029 55.2725 44.7029 55.4664 44.7999C55.6603 44.8968 55.8543 44.9938 55.9512 45.0908C56.0482 45.1877 56.2421 45.3817 56.2421 45.5756C56.2421 45.6726 56.3391 45.8665 56.3391 46.1574ZM55.8543 46.1574C55.8543 45.9635 55.8543 45.7695 55.7573 45.6726C55.7573 45.4786 55.6603 45.3817 55.5634 45.2847C55.4664 45.1877 55.3694 45.0908 55.1755 44.9938C54.9815 44.8968 54.7876 44.8968 54.5937 44.8968H54.1088V47.515H54.5937C54.7876 47.515 54.9815 47.515 55.1755 47.418C55.3694 47.321 55.4664 47.321 55.5634 47.1271C55.6603 47.0301 55.7573 46.8362 55.7573 46.7392C55.8543 46.5453 55.8543 46.3513 55.8543 46.1574Z" fill="white"/>
<path d="M58.9572 47.7082C58.9572 47.8052 58.9572 47.8052 58.9572 47.8052H57.2118H57.1148L57.0178 47.7082V44.7022C57.0178 44.6052 57.0178 44.6052 57.1148 44.6052H57.2118H58.8602C58.8602 44.6052 58.8602 44.6052 58.8602 44.7022V44.7992V44.8961C58.8602 44.8961 58.8602 44.8961 58.8602 44.9931H57.5027V46.0597H58.6663C58.6663 46.0597 58.6663 46.0597 58.6663 46.1567V46.2537V46.3506C58.6663 46.3506 58.6663 46.3507 58.6663 46.4476H57.5027V47.5143H58.8602C58.9572 47.6112 58.9572 47.6112 58.9572 47.7082Z" fill="white"/>
<path d="M61.4786 46.9324C61.4786 47.1263 61.4786 47.2233 61.3817 47.3203C61.2847 47.4172 61.2847 47.5142 61.0907 47.6112C60.9938 47.7081 60.8968 47.8051 60.7029 47.8051C60.6059 47.8051 60.412 47.9021 60.218 47.9021C60.1211 47.9021 60.0241 47.9021 59.9271 47.9021C59.8301 47.9021 59.7332 47.9021 59.6362 47.8051C59.5392 47.8051 59.5392 47.7081 59.4423 47.7081C59.3453 47.7081 59.3453 47.6112 59.3453 47.6112C59.3453 47.6112 59.3453 47.6112 59.3453 47.5142V47.4172V47.3203C59.3453 47.3203 59.3453 47.3203 59.3453 47.2233H59.4423C59.4423 47.2233 59.5392 47.3203 59.6362 47.3203C59.7332 47.3203 59.8301 47.4172 59.9271 47.4172C60.0241 47.4172 60.1211 47.4172 60.315 47.4172C60.412 47.4172 60.5089 47.4172 60.6059 47.4172C60.7029 47.4172 60.7998 47.3203 60.7998 47.3203C60.8968 47.2233 60.8968 47.2233 60.8968 47.1263C60.8968 47.0294 60.8968 46.9324 60.8968 46.9324C60.8968 46.8354 60.8968 46.7385 60.7998 46.6415C60.7998 46.5445 60.7029 46.5445 60.6059 46.4476C60.5089 46.3506 60.412 46.3506 60.315 46.3506C60.218 46.3506 60.1211 46.2536 60.0241 46.2536C59.9271 46.2536 59.8301 46.1566 59.7332 46.0597C59.6362 45.9627 59.5392 45.9627 59.4423 45.8657C59.3453 45.7688 59.3453 45.6718 59.2483 45.5748C59.2483 45.4779 59.1514 45.3809 59.1514 45.187C59.1514 45.09 59.1514 44.8961 59.2483 44.7991C59.3453 44.7021 59.3453 44.6052 59.4423 44.5082C59.5392 44.4112 59.6362 44.4112 59.7332 44.3143C59.8301 44.3143 60.0241 44.2173 60.1211 44.2173C60.218 44.2173 60.315 44.2173 60.315 44.2173C60.412 44.2173 60.5089 44.2173 60.5089 44.3143C60.6059 44.3143 60.6059 44.3143 60.7029 44.4112C60.7998 44.4112 60.7998 44.5082 60.7998 44.5082C60.7998 44.5082 60.7998 44.5082 60.7998 44.6052C60.7998 44.6052 60.7998 44.6052 60.7998 44.7021V44.7991C60.7998 44.7991 60.7998 44.7991 60.7998 44.8961H60.7029C60.7029 44.8961 60.6059 44.7991 60.5089 44.7991C60.412 44.7991 60.412 44.7021 60.315 44.7021C60.218 44.7021 60.1211 44.7021 60.0241 44.7021C59.9271 44.7021 59.8301 44.7021 59.7332 44.7021C59.6362 44.7021 59.6362 44.7991 59.5392 44.7991C59.5392 44.7991 59.4423 44.8961 59.4423 44.993C59.4423 45.09 59.4423 45.09 59.4423 45.187C59.4423 45.2839 59.4423 45.3809 59.5392 45.4779C59.5392 45.5748 59.6362 45.5748 59.7332 45.6718C59.8301 45.7688 59.9271 45.7688 60.0241 45.7688C60.1211 45.7688 60.218 45.8657 60.315 45.8657C60.412 45.8657 60.5089 45.9627 60.6059 46.0597C60.7029 46.1566 60.7998 46.1566 60.8968 46.2536C60.9938 46.3506 60.9938 46.4476 61.0907 46.5445C61.4786 46.6415 61.4786 46.8354 61.4786 46.9324Z" fill="white"/>
<path d="M64.1937 44.702C64.1937 44.799 64.1937 44.799 64.1937 44.8959H63.224V47.9019C63.224 47.9019 63.224 47.9019 63.1271 47.9019H63.0301H62.9331H62.8361V44.8959H61.8665C61.8665 44.8959 61.8665 44.8959 61.8665 44.799V44.702V44.605C61.8665 44.605 61.8665 44.605 61.8665 44.5081H64.2907C64.1937 44.5081 64.1937 44.5081 64.1937 44.702C64.1937 44.605 64.1937 44.605 64.1937 44.702Z" fill="white"/>
<path d="M65.1633 47.8052C65.1633 47.9021 65.1633 47.9021 65.1633 47.8052C65.0663 47.9021 65.0663 47.9021 65.0663 47.9021H64.9693H64.8724H64.7754V44.6052C64.7754 44.6052 64.7754 44.6052 64.8724 44.6052H64.9693H65.0663H65.1633V47.8052Z" fill="white"/>
<path d="M68.6541 47.7088C68.6541 47.8057 68.6541 47.8057 68.5571 47.9027C68.5571 47.9027 68.5571 47.9027 68.4602 47.9027C68.4602 47.9027 68.4602 47.9027 68.3632 47.9027H68.1693H68.0723C68.0723 47.9027 67.9753 47.9027 67.9753 47.8057L67.8783 47.7088C67.8783 47.7088 67.7814 47.6118 67.7814 47.5148L66.7147 45.5755C66.6178 45.4785 66.6177 45.3815 66.5208 45.2846C66.4238 45.1876 66.4238 45.0906 66.3268 44.9937C66.3268 45.0906 66.3268 45.2846 66.3268 45.3815C66.3268 45.4785 66.3268 45.6725 66.3268 45.7694V47.8057C66.3268 47.8057 66.3268 47.8057 66.2299 47.8057H66.1329H66.0359H65.939V44.6058C65.939 44.5088 65.939 44.5088 66.0359 44.4119H66.1329H66.3268C66.4238 44.4119 66.4238 44.4119 66.4238 44.4119H66.5208C66.5208 44.4119 66.6177 44.4119 66.6177 44.5088L66.7147 44.6058L67.4905 46.0603C67.5874 46.1573 67.5874 46.2543 67.5874 46.3512C67.5874 46.4482 67.6844 46.5452 67.6844 46.6421C67.6844 46.7391 67.7814 46.8361 67.7814 46.933C67.7814 47.03 67.8783 47.127 67.8783 47.2239C67.8783 47.127 67.8783 46.933 67.8783 46.8361C67.8783 46.6421 67.8783 46.5452 67.8783 46.4482V44.6058C67.8783 44.6058 67.8783 44.6058 67.9753 44.6058H68.0723H68.1693H68.2662V47.7088H68.6541Z" fill="white"/>
<path d="M72.1451 47.7088C72.1451 47.8057 72.1451 47.8057 72.1451 47.7088C72.1451 47.8057 72.1451 47.8057 72.1451 47.9027C72.1451 47.9027 72.1451 47.9027 72.0481 47.9027H71.9512C71.8542 47.9027 71.8542 47.9027 71.8542 47.9027H71.7572L71.4663 47.03H70.0118L69.7209 47.8057C69.7209 47.8057 69.7209 47.8057 69.6239 47.8057H69.5269C69.43 47.8057 69.43 47.8057 69.43 47.8057H69.333C69.333 47.8057 69.333 47.8057 69.333 47.7088V47.6118L70.4966 44.4119C70.4966 44.4119 70.4966 44.4119 70.5936 44.4119H70.6906H70.7875C70.8845 44.4119 70.8845 44.4119 70.8845 44.4119H70.9815C70.9815 44.4119 70.9815 44.4119 71.0785 44.4119C71.0785 44.4119 71.0785 44.4119 71.0785 44.5088L72.1451 47.7088ZM70.6906 44.8967L70.1088 46.6421H71.2724L70.6906 44.8967Z" fill="white"/>
<path d="M74.4723 44.702C74.4723 44.799 74.4723 44.799 74.4723 44.8959H73.5026V47.9019C73.5026 47.9019 73.5026 47.9019 73.4056 47.9019H73.3086H73.2117H73.1147V44.8959H72.145C72.145 44.8959 72.145 44.8959 72.145 44.799V44.702V44.605C72.145 44.605 72.145 44.605 72.145 44.5081H74.5692C74.3753 44.5081 74.3753 44.5081 74.4723 44.702C74.4723 44.605 74.4723 44.605 74.4723 44.702Z" fill="white"/>
<path d="M75.3451 47.8052C75.3451 47.9021 75.3451 47.9021 75.3451 47.8052C75.2482 47.9021 75.2482 47.9021 75.2482 47.9021H75.1512H75.0542H74.9573V44.6052C74.9573 44.6052 74.9573 44.6052 75.0542 44.6052H75.1512H75.2482H75.3451V47.8052Z" fill="white"/>
<path d="M79.1269 46.1573C79.1269 46.4482 79.1269 46.6421 79.03 46.933C78.933 47.127 78.836 47.3209 78.7391 47.5148C78.6421 47.7088 78.4481 47.8057 78.2542 47.9027C78.0603 47.9997 77.8663 47.9997 77.5754 47.9997C77.2845 47.9997 77.0906 47.9997 76.8966 47.9027C76.7027 47.8057 76.5088 47.7088 76.4118 47.6118C76.3148 47.4179 76.2179 47.3209 76.1209 47.03C76.0239 46.8361 76.0239 46.5452 76.0239 46.2543C76.0239 45.9634 76.0239 45.7694 76.1209 45.4785C76.2179 45.2846 76.3148 45.0906 76.4118 44.8967C76.5088 44.7028 76.7027 44.6058 76.8966 44.5088C77.0906 44.4119 77.2845 44.4119 77.5754 44.4119C77.8663 44.4119 78.0603 44.4119 78.2542 44.5088C78.4481 44.6058 78.6421 44.7028 78.7391 44.7997C78.836 44.8967 78.933 45.0906 79.03 45.3815C79.1269 45.5755 79.1269 45.8664 79.1269 46.1573ZM78.6421 46.1573C78.6421 45.9634 78.6421 45.7694 78.5451 45.5755C78.5451 45.3815 78.4482 45.2846 78.3512 45.1876C78.2542 45.0906 78.1572 44.9937 78.0603 44.8967C77.9633 44.7997 77.7694 44.7997 77.5754 44.7997C77.3815 44.7997 77.1876 44.7997 77.0906 44.8967C76.9936 44.9937 76.7997 45.0906 76.7997 45.1876C76.7027 45.2846 76.7027 45.4785 76.6057 45.5755C76.6057 45.7694 76.5088 45.8664 76.5088 46.0603C76.5088 46.2543 76.5088 46.4482 76.6057 46.6421C76.6057 46.8361 76.7027 46.933 76.7997 47.127C76.8966 47.2239 76.9936 47.3209 77.0906 47.4179C77.2845 47.5148 77.3815 47.5148 77.5754 47.5148C77.7694 47.5148 77.9633 47.5148 78.0603 47.4179C78.1572 47.3209 78.3512 47.2239 78.3512 47.127C78.4482 47.03 78.4481 46.8361 78.5451 46.6421C78.6421 46.5452 78.6421 46.3512 78.6421 46.1573Z" fill="white"/>
<path d="M82.4239 47.7088C82.4239 47.8057 82.4239 47.8057 82.3269 47.9027C82.3269 47.9027 82.3269 47.9027 82.2299 47.9027C82.2299 47.9027 82.2299 47.9027 82.133 47.9027H81.939H81.8421C81.8421 47.9027 81.7451 47.9027 81.7451 47.8057L81.6481 47.7088C81.6481 47.7088 81.5512 47.6118 81.5512 47.5148L80.4845 45.5755C80.3875 45.4785 80.3875 45.3815 80.2906 45.2846C80.1936 45.1876 80.1936 45.0906 80.0966 44.9937C80.0966 45.0906 80.0966 45.2846 80.0966 45.3815C80.0966 45.4785 80.0966 45.6725 80.0966 45.7694V47.8057C80.0966 47.8057 80.0966 47.8057 79.9997 47.8057H79.9027H79.8057H79.7087V44.6058C79.7087 44.5088 79.7087 44.5088 79.8057 44.4119H79.9027H80.0966C80.1936 44.4119 80.1936 44.4119 80.1936 44.4119H80.2906C80.2906 44.4119 80.3875 44.4119 80.3875 44.5088L80.4845 44.6058L81.2602 46.0603C81.3572 46.1573 81.3572 46.2543 81.3572 46.3512C81.3572 46.4482 81.4542 46.5452 81.4542 46.6421C81.4542 46.7391 81.5512 46.8361 81.5512 46.933C81.5512 47.03 81.6481 47.127 81.6481 47.2239C81.6481 47.127 81.6481 46.933 81.6481 46.8361C81.6481 46.6421 81.6481 46.5452 81.6481 46.4482V44.6058C81.6481 44.6058 81.6481 44.6058 81.7451 44.6058H81.8421H81.939H82.036V47.7088H82.4239Z" fill="white"/>
<path d="M85.2359 46.9324C85.2359 47.1263 85.236 47.2233 85.139 47.3203C85.042 47.4172 85.042 47.5142 84.8481 47.6112C84.7511 47.7081 84.6541 47.8051 84.4602 47.8051C84.3632 47.8051 84.1693 47.9021 83.9753 47.9021C83.8784 47.9021 83.7814 47.9021 83.6844 47.9021C83.5875 47.9021 83.4905 47.9021 83.3935 47.8051C83.2966 47.8051 83.2966 47.7081 83.1996 47.7081C83.1026 47.7081 83.1026 47.6112 83.1026 47.6112C83.1026 47.6112 83.1026 47.6112 83.1026 47.5142V47.4172V47.3203C83.1026 47.3203 83.1026 47.3203 83.1026 47.2233H83.1996C83.1996 47.2233 83.2966 47.3203 83.3935 47.3203C83.4905 47.3203 83.5875 47.4172 83.6844 47.4172C83.7814 47.4172 83.8784 47.4172 84.0723 47.4172C84.1693 47.4172 84.2663 47.4172 84.3632 47.4172C84.4602 47.4172 84.5572 47.3203 84.5572 47.3203C84.6541 47.2233 84.6541 47.2233 84.6541 47.1263C84.6541 47.0294 84.6541 46.9324 84.6541 46.9324C84.6541 46.8354 84.6541 46.7385 84.5572 46.6415C84.5572 46.5445 84.4602 46.5445 84.3632 46.4476C84.2663 46.3506 84.1693 46.3506 84.0723 46.3506C83.9753 46.3506 83.8784 46.2536 83.7814 46.2536C83.6844 46.2536 83.5875 46.1566 83.4905 46.0597C83.3935 45.9627 83.2966 45.9627 83.1996 45.8657C83.1026 45.7688 83.1026 45.6718 83.0057 45.5748C83.0057 45.4779 82.9087 45.3809 82.9087 45.187C82.9087 45.09 82.9087 44.8961 83.0057 44.7991C83.1026 44.7021 83.1026 44.6052 83.1996 44.5082C83.2966 44.4112 83.3935 44.4112 83.4905 44.3143C83.5875 44.3143 83.7814 44.2173 83.8784 44.2173C83.9754 44.2173 84.0723 44.2173 84.0723 44.2173C84.1693 44.2173 84.2663 44.2173 84.2663 44.3143C84.3632 44.3143 84.3632 44.3143 84.4602 44.4112C84.5572 44.4112 84.5572 44.5082 84.5572 44.5082C84.5572 44.5082 84.5572 44.5082 84.5572 44.6052C84.5572 44.6052 84.5572 44.6052 84.5572 44.7021V44.7991C84.5572 44.7991 84.5572 44.7991 84.5572 44.8961H84.4602C84.4602 44.8961 84.3632 44.7991 84.2663 44.7991C84.1693 44.7991 84.1693 44.7021 84.0723 44.7021C83.9753 44.7021 83.8784 44.7021 83.7814 44.7021C83.6844 44.7021 83.5875 44.7021 83.4905 44.7021C83.3935 44.7021 83.3935 44.7991 83.2966 44.7991C83.2966 44.7991 83.1996 44.8961 83.1996 44.993C83.1996 45.09 83.1996 45.09 83.1996 45.187C83.1996 45.2839 83.1996 45.3809 83.2966 45.4779C83.2966 45.5748 83.3935 45.5748 83.4905 45.6718C83.5875 45.7688 83.6844 45.7688 83.7814 45.7688C83.8784 45.7688 83.9753 45.8657 84.0723 45.8657C84.1693 45.8657 84.2663 45.9627 84.3632 46.0597C84.4602 46.1566 84.5572 46.1566 84.6541 46.2536C84.7511 46.3506 84.7511 46.4476 84.8481 46.5445C85.2359 46.6415 85.2359 46.8354 85.2359 46.9324Z" fill="white"/>
<path fill-rule="evenodd" clip-rule="evenodd" d="M22.5939 3.97569C22.5939 3.97569 22.0121 2.32723 23.3696 2.32723C23.3696 2.32723 23.9514 0.678776 24.4363 0.872712C24.4363 0.872712 24.2423 1.84239 23.7575 2.4242C23.7575 2.4242 23.7575 2.90904 24.0484 3.10298C24.3393 3.29691 25.7938 5.33324 26.0848 9.21196L26.4726 12.3149C26.4726 12.3149 26.7635 12.7028 27.3454 12.4119C27.9272 12.218 29.3817 11.6362 30.2544 11.8301L30.6423 11.7331C30.6423 11.7331 30.9332 9.21196 32.7756 9.79377C32.7756 9.79377 33.8423 10.1816 33.6483 11.4422C33.6483 11.4422 34.9089 11.2483 35.6847 11.7331C35.6847 11.7331 37.5271 12.5089 37.721 12.5089C38.0119 12.5089 38.3998 12.024 38.4968 11.4422L38.6907 10.8604C38.6907 10.8604 38.5938 7.75744 39.2725 6.49686C39.2725 6.49686 40.2422 4.16963 40.824 4.07266L40.7271 0L41.2119 0.387872L41.3089 0.872712L41.5028 3.39388C41.5028 3.39388 41.9877 3.39388 41.8907 3.97569C41.8907 3.97569 42.2786 5.04234 42.1816 5.52718L42.8604 6.69079L42.4725 7.2726L41.6968 5.72111C41.6968 5.72111 40.7271 6.10899 40.6301 6.9817C40.6301 6.9817 40.4362 10.8604 40.4362 11.0544C40.4362 11.2483 40.4362 14.6422 38.6907 15.321C38.6907 15.321 38.2059 15.8058 37.721 15.127C37.721 15.127 37.3332 14.7391 36.9453 14.9331C36.9453 14.9331 36.9453 15.4179 36.6544 15.03C36.6544 15.03 36.5574 15.03 36.4604 15.03C36.3635 15.127 36.3635 15.5149 36.0726 15.03C36.0726 15.03 35.1998 15.321 35.1998 15.9028C35.1998 15.9028 35.1029 16.3876 35.1998 16.4846C35.2968 16.6785 35.8786 18.327 35.6847 19.5875C35.6847 19.5875 35.6847 19.8784 35.9756 19.8784C36.2665 19.8784 36.6544 20.5572 36.5574 21.0421C36.4604 21.5269 36.6544 25.4056 36.4604 25.6965L36.2665 26.5692C36.2665 26.5692 36.1695 28.4116 36.2665 28.7025C36.4604 29.0904 36.5574 30.0601 36.1695 29.9631C36.1695 29.9631 35.8786 30.6419 35.7817 30.0601C35.7817 30.0601 35.5877 29.6722 35.4907 29.8662C35.4907 29.8662 35.4907 30.5449 35.1998 30.5449C35.1998 30.5449 35.1029 30.6419 35.1029 29.8662L34.9089 29.1874C34.9089 29.1874 34.715 28.7995 34.5211 29.1874C34.5211 29.1874 34.4241 29.9631 34.2302 29.2843C34.2302 29.2843 34.0362 28.4116 34.618 28.5086V27.6359L34.5211 23.2723C34.5211 23.2723 34.3271 23.1754 34.3271 23.2723C34.2302 23.3693 33.6483 24.0481 33.0665 24.0481H32.0968C32.0968 24.0481 31.9999 24.0481 32.0968 24.339C32.2908 24.6299 32.5817 25.3087 32.6786 25.6965C32.6786 26.0844 32.6786 26.3753 32.7756 26.4723C32.8726 26.5692 33.1635 26.9571 33.2605 27.1511C33.2605 27.345 33.3574 27.6359 33.3574 27.7329C33.3574 27.8298 33.4544 28.1207 33.1635 27.9268C33.1635 27.9268 32.6787 27.9268 32.8726 28.1207C33.0665 28.3147 33.3574 28.0238 33.3574 28.2177C33.3574 28.4116 33.4544 28.8965 33.2605 28.9934C33.2605 28.9934 32.7756 29.0904 32.3877 28.9934C32.0968 28.7995 31.515 28.5086 31.515 28.2177C31.515 27.8298 31.4181 26.5692 31.4181 26.2783C31.4181 25.9874 31.1271 24.9208 30.4484 24.4359C30.4484 24.4359 27.6363 22.5936 27.7332 21.0421C27.7332 21.0421 27.5393 19.1997 28.9938 19.3936H29.1878C29.1878 19.3936 28.8969 17.4542 29.6726 16.0967C29.6726 16.0967 29.8665 15.321 29.7696 14.9331C29.7696 14.9331 29.4787 14.5452 29.2847 14.9331C29.2847 14.9331 28.8969 15.5149 28.7999 14.8361C28.7029 14.1573 28.606 14.3513 28.315 14.4482C28.315 14.4482 28.315 15.127 28.0241 14.5452C28.0241 14.5452 27.6363 14.4482 27.6363 14.9331C27.6363 14.9331 27.2484 15.321 26.9575 14.8361C26.9575 14.8361 26.6666 14.4482 26.5696 14.8361C26.5696 14.8361 26.3757 15.127 26.2787 14.7391C26.2787 14.7391 26.0848 14.6422 26.0848 14.9331C26.0848 14.9331 25.8908 15.321 25.7939 14.9331C25.7939 14.9331 24.8242 14.8361 24.7272 14.2543L24.2423 7.36957C24.2423 7.36957 24.3393 5.62415 24.0484 5.33324C24.0484 5.33324 23.0787 4.36356 23.0787 4.26659C23.0787 4.16963 22.9818 4.36356 22.9818 4.36356L21.9151 5.43021C21.9151 5.43021 21.6242 5.81808 21.3333 5.52718C21.3333 5.52718 21.1393 5.43021 21.7212 5.04234L22.6908 4.16963L22.5939 3.97569Z" fill="white"/>
</svg>
